<svg width="280" height="115" viewBox="0 0 280 115" fill="none" xmlns="http://www.w3.org/2000/svg">
<path d="M0 0L222.701 0C254.346 0 280 25.8544 280 57.5V57.5C280 89.1456 254.346 115 222.701 115H0L0 0Z" fill="url(#paint0_linear_145_5463)"/>
<path d="M235.604 79.1616H226.224V54.9493C226.224 49.1768 223.899 46.6113 218.367 46.5311H218.126C211.151 46.5311 207.864 49.9785 207.864 56.8734V79.1616H198.484V19.0317H207.864V47.2527C208.987 42.3621 214.198 38.3535 221.814 38.3535C230.473 38.4336 235.604 43.0035 235.604 52.3837V79.1616Z" fill="black"/>
<path d="M88.9881 39.075V32.1801L98.3684 25.4456V39.075H112.719V47.3328H98.3684V64.7304C98.3684 70.102 99.8917 71.7055 104.381 71.7055C107.749 71.7055 111.116 70.583 113.441 69.1399V77.2374C111.677 78.6805 106.787 79.9633 102.778 79.9633C93.7985 79.9633 88.9881 76.5158 88.9881 67.4563V47.3328H81.6924V39.075H88.9881Z" fill="black"/>
<path fill-rule="evenodd" clip-rule="evenodd" d="M151.789 65.5321V75.1529C149.865 77.3977 144.333 80.0435 137.037 79.9633C123.808 80.0435 115.951 72.7477 115.951 58.9579C115.951 45.6492 124.289 38.1931 136.395 38.1931C148.021 38.2733 154.996 45.4087 154.996 57.9959V61.8442H125.251C125.973 68.4985 130.062 71.8658 137.358 71.8658C144.733 71.8658 149.624 69.0597 151.789 65.5321ZM145.615 55.1898C145.375 49.738 141.847 46.3708 136.155 46.3708C130.142 46.3708 126.374 49.4173 125.412 55.1898H145.615Z" fill="black"/>
<path d="M192.721 75.1529V65.5321C190.716 69.0597 186.307 71.8658 179.653 71.8658C172.116 71.8658 167.627 68.0175 167.627 59.7597V58.5571C167.627 50.4596 171.796 46.3708 179.492 46.3708C185.345 46.4509 189.594 49.3372 192.32 53.5863V41.8811C189.674 39.8767 184.864 38.2733 179.492 38.1931C166.745 38.2733 158.086 45.1682 158.086 58.9579C158.086 72.9882 166.584 80.0435 179.412 80.0435C185.906 80.0435 190.957 77.3977 192.721 75.1529Z" fill="black"/>
<path d="M0.332031 36.1178L3.73473 35.7273C7.24361 35.3247 10.4967 37.6171 11.2978 41.057L17.9521 69.6313H61.5329L66.9277 47.8174H58.5319L55.1527 61.481H24.4224L21.1288 47.3379H58.4448L60.1789 39.1877H19.2308C17.4823 31.7264 10.4212 26.7563 2.80555 27.6302L0.332031 27.9141V36.1178Z" fill="black"/>
<path d="M26.2211 87.1304C29.928 87.1304 32.933 84.1254 32.933 80.4185C32.933 76.7115 29.928 73.7065 26.2211 73.7065C22.5142 73.7065 19.5091 76.7115 19.5091 80.4185C19.5091 84.1254 22.5142 87.1304 26.2211 87.1304Z" fill="black"/>
<path d="M58.3427 80.4185C58.3427 84.1254 55.3376 87.1304 51.6307 87.1304C47.9238 87.1304 44.9187 84.1254 44.9187 80.4185C44.9187 76.7115 47.9238 73.7065 51.6307 73.7065C55.3376 73.7065 58.3427 76.7115 58.3427 80.4185Z" fill="black"/>
<defs>
<linearGradient id="paint0_linear_145_5463" x1="280" y1="57.7258" x2="1.88205e-07" y2="57.7257" gradientUnits="userSpaceOnUse">
<stop stop-color="#31C2A7"/>
<stop offset="0.830729" stop-color="#31C2A7" stop-opacity="0"/>
</linearGradient>
</defs>
</svg>
